Life in a middle-class neighborhood in present day Recife, Brazil, takes an unexpected turn after the arrival of an independent private security firm. The presence of these men brings a sense of safety and a good deal of anxiety to a culture which runs on fear. Meanwhile, Bia, married and mother of two, must find a way to deal with the constant barking and howling of her neighbor's dog. A slice of 'Braziliana', a reflection on history, violence and noise. Written by O Som ao Redor

SUBS: Spanish
  
http://www.imdb.com/title/tt2190367/

General 
Complete name : O Som ao Redor.avi 
Format : AVI 
Format/Info : Audio Video Interleave 
File size : 1.82 GiB 
Duration : 2h 11mn 
Overall bit rate : 1 986 Kbps 
Writing application : FairUse Wizard - http://fairusewizard.com 
Writing library : The best and REALLY easy backup tool 

Video 
ID : 0 
Format : MPEG-4 Visual 
Format profile : Advanced Simple@L5 
Format settings, BVOP : 1 
Format settings, QPel : No 
Format settings, GMC : No warppoints 
Format settings, Matrix : Default (MPEG) 
Muxing mode : Packed bitstream 
Codec ID : XVID 
Codec ID/Hint : XviD 
Duration : 2h 11mn 
Bit rate : 1 785 Kbps 
Width : 704 pixels 
Height : 288 pixels 
Display aspect ratio : 2.40:1 
Frame rate : 23.976 fps 
Color space : YUV 
Chroma subsampling : 4:2:0 
Bit depth : 8 bits 
Scan type : Progressive 
Compression mode : Lossy 
Bits/(Pixel*Frame) : 0.367 
Stream size : 1.63 GiB (90%) 
Writing library : XviD 1.2.0.dev47 (UTC 2006-11-01) 

Audio 
ID : 1 
Format : AC-3 
Format/Info : Audio Coding 3 
Mode extension : CM (complete main) 
Format settings, Endianness : Big 
Codec ID : 2000 
Duration : 2h 11mn 
Bit rate mode : Constant 
Bit rate : 192 Kbps 
Channel(s) : 2 channels 
Channel positions : Front: L R 
Sampling rate : 48.0 KHz 
Bit depth : 16 bits 
Compression mode : Lossy 
Stream size : 180 MiB (10%) 
Alignment : Split accross interleaves 
Interleave, duration : 42 ms (1.00 video frame) 
Interleave, preload duration : 500 ms 

